<svg version="1.0" xmlns="http://www.w3.org/2000/svg"
 width="736.000000pt" height="736.000000pt" viewBox="0 0 736.000000 736.000000"
 preserveAspectRatio="xMidYMid meet">

<g transform="translate(0.000000,736.000000) scale(0.100000,-0.100000)"
fill="#000000" stroke="none">
<path d="M4355 7205 c-66 -17 -107 -39 -171 -91 -87 -72 -149 -201 -138 -287
6 -41 5 -42 -38 -65 -106 -55 -209 -195 -229 -310 -27 -151 57 -313 184 -355
l42 -14 5 -79 c8 -123 54 -189 165 -240 53 -25 73 -28 175 -30 l115 -3 59 -47
c72 -59 147 -148 183 -217 24 -45 28 -67 31 -164 2 -62 1 -120 -2 -129 -5 -14
-7 -14 -22 0 -8 9 -20 16 -25 16 -5 0 -9 14 -9 30 0 41 -36 76 -88 85 -37 6
-42 10 -48 41 -3 18 -24 53 -45 77 -52 60 -122 89 -225 95 -145 8 -229 -32
-331 -158 -51 -64 -53 -65 -96 -62 -42 3 -47 1 -78 -38 -73 -91 -105 -124
-133 -135 -27 -12 -31 -10 -65 24 -20 20 -49 53 -64 74 -57 75 -119 84 -202
27 -71 -49 -98 -55 -151 -35 -97 37 -151 -4 -204 -159 -14 -40 -21 -50 -36
-47 -11 2 -42 4 -70 5 -41 1 -57 -4 -85 -25 -59 -45 -119 -201 -105 -271 5
-26 4 -29 -12 -23 -32 15 -296 24 -397 15 -127 -12 -314 -65 -389 -110 -81
-49 -202 -171 -279 -281 -36 -52 -75 -103 -87 -114 -12 -11 -72 -64 -134 -118
-99 -88 -214 -203 -439 -436 l-71 -74 -125 -2 c-141 -1 -229 -22 -336 -78
-161 -86 -255 -256 -255 -460 0 -40 6 -95 14 -122 44 -166 191 -478 259 -552
63 -69 169 -127 345 -192 135 -49 222 -91 222 -106 0 -22 47 -223 71 -300 28
-91 175 -431 223 -515 40 -70 186 -257 271 -348 123 -130 229 -206 424 -303
91 -45 187 -95 212 -110 67 -39 212 -95 304 -117 44 -11 102 -27 129 -36 111
-38 300 -65 609 -86 297 -20 1372 8 1697 46 210 24 361 63 491 129 27 14 49
31 49 38 1 6 28 32 61 57 56 41 238 220 326 320 178 201 363 472 474 692 45
90 111 279 130 376 l13 62 46 0 c88 0 217 56 309 133 81 67 251 282 294 372
70 142 89 218 95 361 5 151 -6 204 -66 318 -41 79 -140 184 -225 241 -31 21
-116 61 -189 90 l-133 53 -6 68 c-10 125 -52 171 -145 161 -54 -6 -56 -5 -51
16 3 12 14 63 26 112 37 160 21 309 -43 403 -42 61 -86 84 -154 79 -45 -3 -59
-9 -93 -43 -22 -21 -52 -58 -66 -81 -28 -49 -38 -55 -29 -17 11 44 36 306 36
384 0 84 -18 131 -62 163 -50 37 -127 -1 -195 -97 l-20 -30 -28 22 c-15 12
-35 22 -45 22 -9 0 -29 11 -44 25 -20 19 -38 25 -71 25 -42 0 -46 3 -64 39
-29 55 -84 73 -160 50 -9 -3 -19 13 -31 46 -48 137 -115 221 -203 252 -67 23
-223 23 -284 0 l-41 -16 38 72 c21 40 50 108 65 152 15 44 32 90 37 102 16 33
3 304 -18 383 -9 36 -30 91 -45 122 -16 32 -29 59 -29 62 0 2 21 16 46 31 73
43 180 151 210 211 59 120 -2 228 -128 229 -27 0 -48 1 -48 2 0 1 17 27 39 57
49 71 65 128 59 215 -13 173 -166 348 -374 427 -87 33 -219 41 -309 19z m291
-49 c93 -34 152 -73 230 -150 97 -97 128 -162 128 -270 1 -71 -3 -87 -29 -135
-16 -29 -55 -77 -87 -106 -52 -47 -71 -75 -50 -75 4 0 25 7 47 15 22 8 65 14
96 15 68 0 103 -23 120 -79 10 -34 9 -45 -13 -93 -31 -68 -105 -142 -203 -205
-42 -26 -97 -63 -123 -81 -42 -30 -44 -32 -17 -26 17 4 47 15 67 25 20 11 39
15 42 10 22 -35 67 -271 73 -376 8 -156 -13 -242 -98 -412 -75 -151 -92 -162
-68 -42 6 32 8 99 4 166 -6 104 -9 116 -43 172 -48 81 -126 162 -195 201 -38
21 -57 38 -57 51 0 10 -4 19 -10 19 -5 0 -10 -5 -10 -12 0 -15 -168 -4 -238
17 -101 30 -174 128 -176 235 -1 53 0 55 26 55 14 -1 24 3 22 7 -3 4 -11 8
-18 8 -30 0 -129 53 -171 91 -63 58 -88 129 -83 230 10 168 125 301 316 363
65 22 59 39 -10 30 l-51 -7 5 51 c11 112 113 248 224 299 104 47 234 51 350 9z
m-231 -1711 c61 -38 87 -73 94 -127 6 -43 6 -43 52 -48 60 -7 75 -21 82 -71 3
-23 11 -47 18 -53 9 -8 10 -8 4 2 -6 11 -3 12 14 3 22 -12 30 -27 9 -16 -7 4
-6 0 4 -7 32 -27 25 -55 -24 -105 -87 -89 -118 -185 -118 -365 0 -77 -3 -97
-12 -91 -7 4 -5 -5 5 -20 29 -45 22 -60 -35 -82 -29 -10 -57 -18 -63 -16 -5 1
-7 0 -3 -4 4 -4 -2 -17 -14 -29 -42 -44 -66 -82 -78 -122 -11 -36 -19 -45 -61
-63 -27 -12 -59 -35 -73 -51 -13 -16 -27 -27 -30 -24 -3 2 -4 1 -1 -3 3 -3 -1
-16 -8 -27 -8 -12 -17 -33 -21 -48 -5 -24 -12 -28 -40 -28 -19 0 -42 -3 -52
-7 -13 -5 -15 -3 -9 7 5 9 4 11 -4 6 -6 -4 -9 -11 -6 -16 5 -8 -24 -25 -38
-21 -5 1 -6 -3 -3 -8 9 -14 -35 -63 -51 -57 -8 3 -12 2 -9 -3 3 -4 -8 -20 -24
-35 -31 -27 -46 -34 -34 -14 4 7 3 8 -5 4 -6 -4 -9 -11 -6 -16 3 -4 -11 -20
-30 -34 l-35 -27 0 64 c0 52 7 80 39 154 59 136 113 239 175 332 31 47 56 87
56 90 0 3 14 19 31 36 17 16 26 31 20 33 -30 10 -125 -66 -248 -201 l-63 -67
0 62 c0 35 7 119 15 188 15 128 18 261 6 315 -9 44 -19 20 -31 -81 -11 -93
-21 -153 -47 -266 l-15 -68 -63 64 c-67 69 -127 106 -171 106 l-27 0 27 -25
c14 -13 26 -28 26 -33 0 -5 20 -34 44 -65 24 -32 54 -77 66 -101 22 -46 56
-193 47 -202 -3 -3 -27 17 -54 45 -78 81 -94 55 -18 -29 40 -45 57 -89 50
-129 l-8 -36 -23 74 c-22 71 -54 125 -54 91 0 -8 9 -51 20 -95 37 -147 37
-177 -3 -305 -19 -63 -44 -148 -56 -187 -12 -40 -23 -73 -25 -73 -3 0 -11 3
-19 6 -14 5 -14 10 0 47 17 49 19 178 2 240 -35 131 -144 250 -285 313 -62 27
-74 48 -74 128 0 41 7 62 30 99 17 26 30 57 30 69 0 11 -21 66 -46 120 -68
150 -71 242 -11 333 18 26 51 61 74 78 36 25 50 30 106 30 55 0 74 -6 126 -34
41 -23 64 -30 71 -23 6 6 20 37 33 70 21 55 27 61 82 90 48 24 72 47 118 108
45 59 63 76 75 70 52 -21 58 -18 132 69 105 124 155 148 306 144 82 -3 97 -6
139 -32z m-964 -224 c20 -18 29 -34 24 -42 -5 -7 -4 -10 3 -5 6 3 15 -2 21
-12 5 -10 20 -24 34 -31 27 -15 31 -38 9 -64 -8 -9 -17 -29 -18 -44 -5 -41
-17 -45 -65 -21 -36 18 -62 23 -141 24 -54 1 -95 -2 -92 -7 7 -11 -34 -31 -48
-23 -7 4 -8 3 -4 -4 4 -7 -8 -28 -29 -50 -20 -20 -41 -49 -47 -64 -5 -16 -13
-26 -16 -24 -8 5 -12 -26 -14 -119 -2 -73 20 -158 52 -205 40 -59 61 -154 29
-134 -5 3 -9 2 -8 -3 1 -4 -7 -28 -19 -53 -23 -48 -31 -170 -12 -170 6 0 10
-3 10 -7 0 -5 -49 -8 -108 -8 l-109 0 5 70 c5 93 -18 190 -69 285 -45 83 -77
121 -129 152 -19 12 -36 22 -37 23 -7 4 41 174 58 206 40 79 116 111 174 73
35 -23 48 -9 86 92 48 128 82 152 165 118 47 -20 85 -10 164 41 66 43 89 44
131 6z m1697 -130 c58 -29 108 -93 142 -182 16 -43 30 -85 30 -92 0 -27 23
-36 50 -22 36 20 94 19 113 -3 9 -10 22 -33 28 -50 10 -30 13 -32 63 -32 42 0
57 -5 74 -23 12 -13 19 -27 15 -32 -5 -4 -3 -5 4 -1 6 3 17 -2 23 -11 11 -17
11 -17 6 0 -5 15 -2 17 17 11 26 -8 39 -24 32 -42 -5 -14 -115 -185 -124 -192
-8 -7 -28 -38 -48 -77 -9 -18 -21 -29 -26 -26 -6 3 -7 1 -4 -4 8 -13 -47 -116
-57 -106 -4 4 -4 -1 0 -11 6 -15 4 -17 -6 -11 -8 5 -11 4 -6 -3 3 -6 -12 -50
-35 -99 -22 -48 -59 -128 -82 -178 -23 -49 -45 -91 -49 -93 -5 -2 -8 -10 -8
-18 0 -8 -8 -33 -19 -57 -10 -23 -31 -73 -46 -112 -16 -38 -39 -94 -52 -123
-12 -29 -23 -57 -23 -63 0 -6 -5 -7 -12 -3 -7 5 -8 3 -4 -5 11 -17 -54 -163
-69 -157 -7 2 -36 7 -67 11 l-54 7 -13 256 c-7 142 -15 285 -17 318 l-3 62
100 73 c134 100 270 181 291 175 10 -2 16 0 13 4 -3 5 4 14 15 20 35 19 22 28
-26 19 -54 -10 -105 -40 -266 -156 -65 -46 -125 -86 -133 -90 -29 -10 -55 26
-55 76 1 183 123 363 318 471 55 30 70 56 26 46 -50 -12 -134 -68 -204 -136
l-68 -65 33 90 c30 83 72 170 99 204 9 12 8 12 -9 4 -30 -17 -60 -53 -85 -103
-12 -25 -28 -52 -36 -60 -7 -8 -31 -60 -53 -115 -45 -109 -61 -134 -61 -93 0
41 -44 160 -75 204 -15 21 -24 30 -20 19 4 -11 23 -84 43 -163 l36 -143 -29
-85 c-16 -46 -33 -84 -37 -84 -4 0 -8 3 -8 8 0 4 -32 6 -70 4 l-70 -4 2 31 c5
61 -71 96 -110 50 -9 -12 -22 -26 -28 -33 -14 -15 -6 -36 14 -37 10 -1 1 -5
-18 -9 -19 -5 -85 -6 -147 -3 l-112 6 15 28 c24 47 76 100 91 95 8 -3 11 -1 8
4 -3 5 9 13 26 18 28 7 36 17 58 71 14 34 39 78 55 98 30 37 95 72 135 73 l23
0 -7 133 c-8 159 4 248 45 333 45 93 139 170 240 199 76 21 213 14 268 -14z
m851 -352 c12 -13 23 -43 26 -73 8 -64 -19 -349 -45 -476 -11 -52 -20 -107
-20 -121 0 -65 -139 -455 -266 -750 -37 -85 -105 -271 -153 -413 -48 -143 -92
-261 -98 -263 -15 -5 106 355 176 528 28 69 51 137 51 150 0 13 14 49 31 79
114 204 251 638 235 742 -4 27 4 65 30 145 32 93 37 121 38 207 1 96 0 99 -26
119 -24 18 -32 19 -67 9 -120 -36 -233 -271 -361 -747 -61 -229 -69 -282 -46
-291 43 -16 128 57 188 164 17 28 31 52 33 52 18 0 -207 -433 -252 -485 -50
-57 -94 -68 -138 -33 -26 21 -27 24 -21 87 18 179 165 629 278 856 80 159 263
470 301 513 27 29 79 30 106 1z m-3919 -117 c0 -24 -33 -54 -90 -82 -25 -13
-61 -35 -80 -50 -19 -15 -45 -30 -57 -34 -13 -4 -23 -13 -23 -20 0 -22 -114
-186 -133 -192 -11 -3 -27 2 -38 12 -41 37 -14 109 70 192 103 101 197 156
316 185 34 8 35 8 35 -11z m3896 -57 c11 -45 -7 -157 -43 -268 -19 -60 -36
-107 -39 -105 -2 2 4 39 12 82 12 59 14 84 5 102 -24 52 -101 12 -146 -75 -23
-47 -71 -202 -99 -319 -13 -56 -13 -64 0 -69 9 -3 27 6 43 21 32 31 86 124 77
133 -8 9 -54 -36 -62 -59 -3 -10 -9 -18 -13 -18 -9 0 48 212 74 275 18 43 49
81 79 97 18 10 19 7 13 -50 -13 -119 -96 -341 -191 -507 -55 -97 -147 -201
-153 -175 -6 24 82 355 138 525 66 201 134 339 193 393 55 51 102 58 112 17z
m-2291 -127 c50 -58 54 -68 43 -107 l-10 -35 -23 57 c-12 32 -34 72 -47 90
-14 17 -28 38 -32 45 -17 28 32 -7 69 -50z m-1095 -5 c0 -5 -22 -19 -48 -31
-65 -33 -153 -102 -173 -137 -15 -25 -16 -39 -8 -83 6 -29 9 -80 7 -113 l-3
-61 -35 53 c-19 30 -50 62 -67 72 -30 17 -41 18 -125 7 -142 -17 -188 -30
-333 -99 -5 -2 10 19 34 48 25 29 76 75 115 101 101 69 136 100 136 119 0 20
-40 60 -90 90 -48 29 -21 26 101 -9 57 -16 112 -30 123 -30 10 0 51 12 90 26
111 40 276 68 276 47z m1190 -264 c0 -112 -4 -246 -9 -296 -8 -81 -13 -95 -35
-115 -32 -28 -50 -110 -40 -185 l6 -53 -66 0 c-36 0 -66 3 -66 8 0 4 25 90 55
192 31 101 64 227 74 280 11 52 32 159 47 238 15 78 29 140 31 139 2 -2 3 -96
3 -208z m175 169 c-15 -24 -51 -92 -81 -152 l-54 -109 0 61 c0 51 5 68 30 106
27 39 117 136 127 136 2 0 -8 -19 -22 -42z m2345 -16 c37 -26 80 -120 92 -199
9 -56 8 -88 -6 -168 -25 -151 -66 -260 -197 -520 -99 -199 -124 -257 -143
-340 -13 -55 -33 -143 -45 -195 -15 -64 -45 -142 -92 -240 -38 -80 -69 -151
-69 -158 0 -50 -48 69 -65 162 -7 36 -7 36 19 27 21 -9 30 -6 56 16 58 49 85
126 144 418 50 246 69 324 142 578 36 125 64 237 62 249 -5 33 -30 44 -67 29
-40 -17 -76 -53 -123 -125 -21 -33 -38 -56 -38 -53 0 14 83 215 106 256 13 24
23 46 20 48 -7 7 -66 -68 -90 -115 -34 -67 -119 -318 -176 -517 -41 -145 -61
-243 -94 -450 -3 -16 -3 8 0 55 2 47 16 139 30 205 14 66 30 144 35 173 5 30
27 97 48 150 21 53 71 198 111 321 58 175 84 242 125 309 41 68 59 88 86 99
42 15 95 9 129 -15z m-4652 -124 c34 -34 -6 -90 -48 -68 -20 11 -24 22 -20 50
4 29 46 40 68 18z m3184 -86 c-15 -84 -30 -110 -46 -83 -5 8 54 184 60 178 2
-1 -5 -44 -14 -95z m-3384 -19 c-6 -21 -7 -61 -4 -90 5 -46 4 -52 -14 -58 -34
-11 -233 -216 -268 -277 -103 -174 -137 -321 -129 -543 6 -164 28 -259 87
-383 108 -227 222 -341 522 -526 68 -41 164 -94 214 -116 49 -23 121 -57 159
-75 67 -32 164 -61 285 -84 30 -5 138 -26 240 -45 178 -34 429 -72 765 -116
150 -20 309 -31 692 -46 191 -8 322 3 608 52 445 77 807 157 940 210 66 26
336 173 403 220 35 25 86 56 113 69 26 14 70 44 97 67 27 24 70 60 97 82 26
21 66 64 89 96 46 62 122 203 137 253 19 63 49 234 56 315 5 70 4 82 -10 82
-16 0 -22 -19 -32 -110 -18 -165 -45 -265 -100 -375 -30 -60 -66 -123 -80
-140 l-26 -30 24 40 c80 133 137 295 137 390 0 111 72 402 109 439 19 18 19
18 35 -12 34 -66 47 -159 49 -360 2 -228 -5 -260 -82 -408 -92 -175 -117 -205
-316 -381 -148 -131 -264 -210 -515 -349 -286 -160 -573 -248 -969 -299 -69
-9 -186 -25 -260 -36 -106 -15 -238 -22 -595 -31 -601 -15 -688 -9 -1246 98
-242 47 -376 81 -595 153 -229 75 -286 97 -459 177 -78 36 -155 71 -172 79
-41 17 -165 119 -239 196 l-60 62 78 -62 c92 -72 133 -95 142 -81 9 15 -1 27
-63 69 -100 68 -230 189 -283 264 -99 138 -199 397 -220 568 -14 117 -6 282
19 372 27 96 67 148 274 360 140 143 358 351 375 356 1 1 -3 -16 -9 -36z
m3118 8 c18 -36 7 -51 -37 -51 -33 0 -40 4 -45 25 -13 54 58 76 82 26z m1314
-116 c-42 -182 -101 -349 -178 -504 -125 -255 -255 -394 -345 -370 -72 18 -76
21 -93 66 -18 46 -56 73 -103 73 -11 0 -22 4 -25 8 -8 14 319 792 342 812 3 3
2 -4 -3 -15 -66 -170 -168 -511 -189 -638 -19 -109 -14 -133 37 -171 63 -46
138 -18 200 76 76 117 243 458 337 690 24 59 45 106 47 105 1 -2 -11 -61 -27
-132z m-1069 -6 c47 -22 59 -33 69 -64 13 -40 7 -52 -116 -225 -80 -112 -79
-112 -275 -99 -90 5 -193 14 -229 18 -36 4 -136 6 -222 3 -133 -4 -164 -2
-202 12 -41 16 -96 65 -96 86 0 4 69 64 153 133 83 68 160 134 171 145 18 21
25 21 355 19 l336 -2 56 -26z m1348 -66 c-22 -98 -35 -128 -53 -125 -10 2 -24
-5 -32 -15 -54 -66 -186 -425 -165 -446 17 -17 25 -2 70 138 44 135 81 228 88
222 5 -6 -64 -335 -86 -408 -21 -67 -73 -159 -91 -159 -26 0 -1 279 40 440 51
200 159 390 221 390 14 0 16 -6 8 -37z m-4643 -66 c14 -8 14 -11 3 -18 -8 -5
-25 -9 -38 -9 -37 0 -117 -56 -156 -109 -41 -57 -89 -166 -138 -316 -47 -145
-54 -214 -32 -291 17 -59 80 -169 134 -233 l28 -34 -25 -45 c-14 -24 -33 -74
-42 -109 l-17 -65 -20 33 c-85 144 -115 223 -134 350 -7 46 -10 140 -7 222 4
130 8 151 40 244 55 160 108 238 257 376 l83 78 24 -33 c14 -18 32 -36 40 -41z
m1606 13 c-81 -57 -128 -117 -119 -152 4 -13 15 -56 26 -97 12 -40 23 -103 26
-140 l6 -66 -24 55 c-46 106 -78 161 -116 199 -33 33 -47 40 -97 45 -66 8
-184 -6 -257 -30 -27 -9 -50 -14 -53 -11 -3 2 41 44 97 92 106 93 116 95 134
38 5 -18 2 -23 -12 -23 -18 0 -89 -38 -82 -44 2 -2 44 3 93 10 l89 13 46 -33
c25 -18 56 -39 69 -45 21 -11 23 -11 14 6 -13 22 -70 77 -96 91 -17 9 -13 13
40 41 l59 32 -46 -4 c-26 -2 -61 -11 -79 -20 -30 -16 -33 -15 -61 5 -16 12
-29 23 -29 24 0 1 26 0 58 -3 44 -4 69 0 112 17 60 24 172 48 234 49 l39 1
-71 -50z m219 37 c8 -7 18 -19 21 -28 7 -17 -21 -154 -40 -201 -14 -34 -54
-61 -76 -52 -35 13 -36 47 -5 160 33 126 57 154 100 121z m1564 -404 c6 -162
5 -193 -6 -193 -12 0 -116 26 -181 46 -16 5 -18 19 -18 113 0 107 0 107 31
137 16 16 58 69 92 119 l62 90 7 -60 c3 -33 9 -147 13 -252z m1580 241 c26
-10 36 -50 42 -165 5 -103 4 -108 -35 -230 -48 -147 -69 -249 -82 -384 -9
-101 -37 -200 -80 -285 -46 -91 -130 -216 -167 -251 -62 -58 -122 -88 -79 -40
21 24 91 169 110 226 48 151 116 515 116 623 0 124 -54 173 -104 94 -26 -41
-104 -233 -132 -324 -26 -86 -29 -62 -5 44 34 145 48 183 133 343 44 83 97
191 118 240 36 84 42 91 77 102 45 14 66 15 88 7z m-2623 -153 c26 -4 120 -6
210 -4 119 4 191 1 269 -11 59 -9 157 -16 219 -16 98 0 111 -2 106 -16 -3 -9
-6 -50 -6 -93 l0 -77 -62 0 c-158 -1 -149 4 -310 -154 l-98 -95 0 41 c0 52
-31 173 -63 245 -34 74 -71 89 -272 104 -131 10 -125 6 -125 80 l0 65 43 -30
c23 -17 63 -34 89 -39z m-1678 1 c-8 -37 -8 -37 -54 -12 -24 12 -30 20 -20 23
8 2 29 9 45 14 17 5 31 9 33 8 1 -1 -1 -16 -4 -33z m1087 -38 c17 -21 0 -49
-31 -49 -27 0 -46 25 -37 49 8 21 51 21 68 0z m-2472 -49 c-11 -25 -27 -76
-34 -113 -20 -92 -19 -322 1 -420 20 -98 96 -308 140 -390 19 -34 34 -65 34
-67 0 -2 -17 3 -37 12 -21 8 -97 26 -170 39 -228 42 -358 99 -452 199 -99 107
-131 205 -112 346 29 215 127 336 328 405 88 31 109 34 210 34 l112 0 -20 -45z
m2841 -10 c167 -5 373 -27 413 -46 15 -7 27 -18 27 -25 0 -12 -128 -216 -187
-299 -15 -21 -48 -54 -72 -73 -44 -33 -46 -34 -115 -27 -39 4 -107 15 -151 25
-44 11 -145 24 -225 29 -80 6 -173 13 -207 17 l-62 5 53 47 c28 26 67 66 86
88 83 98 225 260 234 266 6 5 22 6 36 3 14 -3 91 -7 170 -10z m-1910 -30 c90
-45 168 -95 255 -163 74 -57 84 -68 63 -70 -36 -3 -54 -8 -59 -16 -6 -8 -70
30 -77 47 -6 13 -22 8 -22 -7 0 -45 -63 -27 -82 23 -8 21 -32 50 -52 66 -33
25 -45 28 -135 31 -92 3 -100 2 -139 -23 -53 -35 -76 -82 -69 -138 4 -26 2
-46 -5 -53 -9 -9 -9 -15 0 -24 17 -17 15 -55 -4 -62 -26 -10 -42 -7 -59 10
-15 15 -19 14 -50 -16 -19 -18 -35 -42 -37 -54 -2 -15 -12 -3 -38 44 -29 56
-34 75 -34 135 -1 101 6 118 64 155 27 18 50 38 50 46 0 7 16 29 35 49 27 26
44 35 70 35 18 0 37 -5 40 -11 4 -6 14 -7 24 -4 18 8 146 33 174 34 10 1 49
-15 87 -34z m4125 -105 c-18 -138 -19 -207 -2 -240 17 -34 39 -36 74 -6 l31
26 -13 -68 c-35 -183 -66 -273 -108 -319 -28 -31 -35 -29 -53 14 -20 48 -20
203 1 343 15 107 75 374 81 367 2 -2 -3 -55 -11 -117z m837 96 c101 -20 152
-44 238 -114 130 -105 176 -172 189 -280 20 -160 -35 -312 -161 -447 -98 -105
-201 -168 -355 -220 -71 -23 -143 -46 -162 -50 -32 -7 -34 -6 -18 9 93 94 217
316 243 435 16 79 19 385 3 481 -5 36 -23 94 -39 129 -31 65 -37 86 -21 77 5
-3 42 -12 83 -20z m-2566 -138 c9 -28 22 -90 29 -137 l13 -86 -34 -37 c-94
-105 -119 -227 -88 -442 l7 -48 -29 6 c-16 4 -57 3 -91 -2 l-63 -9 -4 31 c-3
17 -13 74 -22 126 -9 52 -22 137 -28 188 l-13 93 26 14 c41 21 85 73 148 175
86 139 115 180 124 180 4 0 15 -23 25 -52z m674 -17 c91 -22 221 -50 290 -63
117 -22 125 -25 134 -50 14 -40 -20 -83 -147 -186 -60 -48 -132 -106 -162
-130 l-52 -43 -34 20 c-41 23 -283 95 -393 116 -88 17 -262 20 -300 5 -14 -5
-26 -7 -26 -3 0 13 80 103 197 224 111 113 128 127 171 136 90 20 152 14 322
-26z m1474 -69 c0 -42 -11 -133 -23 -202 -23 -133 -81 -384 -87 -378 -2 2 6
54 17 116 20 114 22 201 4 204 -28 4 -133 -221 -171 -371 -25 -99 -32 -236
-14 -271 12 -23 6 -27 -48 -36 -38 -6 -42 -4 -54 20 -18 40 -1 103 91 348 44
117 102 278 129 358 64 186 88 246 114 282 30 43 43 22 42 -70z m-560 -13
c-25 -134 -22 -333 6 -469 25 -122 65 -248 87 -272 8 -9 13 -25 11 -35 -2 -13
-11 -4 -32 32 -63 110 -159 175 -256 175 -22 0 -40 2 -40 4 0 2 36 111 80 243
75 223 151 425 158 418 2 -1 -5 -45 -14 -96z m-110 14 c-44 -101 -89 -220
-135 -362 -28 -86 -58 -173 -67 -195 -15 -38 -16 -38 -59 -33 -24 2 -45 6 -47
8 -2 2 -6 106 -8 230 l-4 225 35 -12 c85 -31 152 -1 242 110 30 36 55 66 57
66 1 0 -5 -17 -14 -37z m-3690 -9 c4 -10 1 -14 -6 -12 -15 5 -23 28 -10 28 5
0 13 -7 16 -16z m396 -125 c0 -7 -70 -2 -97 7 -7 2 -13 13 -13 24 0 12 -4 19
-8 16 -5 -3 -9 1 -9 9 0 9 19 4 64 -18 35 -17 63 -34 63 -38z m2940 -209 l0
-220 -68 34 c-85 43 -153 63 -242 72 -38 3 -70 9 -70 13 0 3 13 15 28 26 48
34 306 251 326 273 11 12 21 22 23 22 1 0 3 -99 3 -220z m-2085 170 c55 -5
155 -14 222 -20 67 -5 134 -15 149 -20 25 -10 141 -29 209 -35 29 -2 30 -4 36
-71 4 -38 16 -121 28 -184 27 -148 27 -166 -1 -174 -40 -10 -73 -7 -134 15
-99 34 -139 38 -213 22 -36 -8 -100 -18 -141 -23 l-75 -8 -55 51 c-30 28 -87
71 -127 97 -56 36 -68 48 -57 55 12 8 13 21 5 80 -15 98 -13 160 4 201 12 28
19 35 32 29 10 -4 63 -11 118 -15z m-547 -26 c70 -15 149 -52 172 -80 9 -11
17 -31 19 -46 3 -31 -16 -36 -61 -19 -13 5 -50 16 -82 26 -55 16 -136 60 -144
78 -2 4 -10 7 -18 7 -15 0 -15 1 -19 38 -3 25 3 25 133 -4z m1769 -95 c91 -13
374 -92 418 -118 43 -25 43 -47 1 -65 -60 -25 -104 -65 -166 -151 l-60 -81
-91 4 c-86 4 -96 3 -165 -28 l-74 -32 -38 25 c-20 14 -56 35 -79 48 -23 13
-45 33 -48 44 -14 46 -17 253 -6 303 13 50 13 51 54 55 89 8 179 7 254 -4z
m2779 -99 c-7 -115 -39 -227 -97 -340 -62 -122 -239 -335 -334 -400 -52 -36
-176 -80 -225 -80 -36 0 -39 2 -42 33 -2 20 -8 32 -18 32 -11 0 -22 -36 -43
-139 -52 -258 -156 -483 -356 -764 -223 -314 -549 -649 -715 -734 -205 -105
-557 -140 -1551 -153 -377 -5 -494 -4 -650 10 -312 26 -412 42 -465 74 -8 5
-66 19 -129 30 -105 20 -313 91 -326 111 -8 13 40 107 124 245 120 196 191
324 191 344 0 31 -100 114 -288 237 -98 64 -189 125 -204 135 -15 11 -29 19
-32 19 -2 0 -35 17 -73 39 -95 54 -136 66 -173 51 -43 -18 -227 -212 -284
-300 -27 -41 -61 -87 -76 -102 l-27 -28 -43 67 c-59 92 -210 426 -248 548 -31
98 -60 220 -66 280 -7 55 -44 167 -61 184 -16 15 -17 13 -12 -40 l5 -57 -61
28 c-35 15 -89 36 -122 45 -142 41 -279 116 -340 188 -33 38 -122 201 -159
290 l-15 38 48 -41 c46 -39 165 -96 261 -126 25 -8 96 -23 158 -35 63 -11 142
-29 177 -40 56 -17 66 -24 90 -64 26 -46 97 -134 154 -193 17 -18 29 -38 25
-44 -4 -6 -3 -8 3 -5 5 3 31 -15 59 -40 112 -103 199 -161 295 -197 35 -14
116 -47 179 -75 110 -49 499 -182 625 -215 93 -23 381 -81 575 -115 232 -40
426 -61 571 -61 l119 0 28 -30 c29 -29 52 -39 52 -21 0 5 -11 12 -24 15 -13 3
-26 13 -30 21 -4 12 5 15 52 15 31 0 199 5 372 10 255 8 356 15 530 39 118 16
240 32 270 36 97 12 382 74 483 105 244 76 686 318 867 475 201 174 186 163
232 164 49 0 248 61 323 98 202 102 364 293 406 478 7 30 14 55 17 55 3 0 2
-45 -2 -100z m-1031 -114 c-30 -148 -29 -136 -11 -136 8 0 19 12 24 28 6 15
11 20 11 12 1 -33 -111 -250 -130 -250 -20 0 2 165 37 275 26 79 87 220 91
208 2 -6 -8 -67 -22 -137z m-4373 119 c115 -20 206 -49 316 -102 51 -24 154
-64 229 -89 185 -62 275 -130 261 -199 -3 -15 -6 -14 -27 4 -33 29 -67 36
-114 24 -26 -7 -51 -8 -73 -1 -19 5 -43 6 -54 3 -10 -3 -21 -1 -25 5 -10 16
-25 12 -19 -5 9 -23 -3 -18 -53 20 -48 37 -76 42 -146 26 -21 -5 -39 -5 -43 0
-8 14 -24 10 -24 -6 0 -22 -9 -19 -32 10 -25 32 -69 55 -105 55 -35 0 -89 -32
-97 -58 -5 -15 -13 -18 -29 -14 l-22 5 23 -25 c12 -13 22 -33 22 -44 0 -46 81
-139 142 -165 23 -10 40 -10 73 -1 29 8 62 8 111 1 106 -15 163 -17 167 -5 2
6 11 4 21 -7 30 -29 83 -34 151 -13 11 3 26 2 34 -3 11 -7 5 -17 -26 -49 -88
-89 -193 -83 -468 27 -262 106 -389 182 -499 303 -39 44 -73 84 -75 91 -2 6
-15 20 -28 30 -12 10 -23 23 -23 30 0 6 13 -2 29 -17 33 -32 45 -23 37 27 -3
17 -3 26 0 20 3 -7 9 -13 13 -13 9 0 44 60 38 66 -6 7 -47 -18 -47 -28 0 -5
-5 -8 -12 -8 -6 0 -4 8 6 19 10 10 14 21 9 23 -4 3 -2 3 5 1 7 -1 29 4 47 12
25 10 33 18 29 29 -3 9 -1 16 5 16 6 0 11 -4 11 -10 0 -5 7 -10 15 -10 8 0 15
4 15 8 0 32 104 40 232 17z m3262 -121 c33 -9 109 -38 168 -65 114 -53 136
-57 260 -45 135 13 238 -36 290 -138 12 -23 40 -70 64 -105 47 -68 57 -119 31
-156 -18 -24 -49 -16 -118 31 -126 85 -222 109 -325 79 -32 -9 -65 -22 -71
-27 -18 -14 -17 -41 1 -35 9 4 32 -15 61 -49 26 -30 51 -54 56 -54 21 0 6 43
-26 79 -36 39 -36 39 -13 47 42 13 145 6 190 -14 24 -10 73 -39 110 -64 l66
-46 -131 -65 c-73 -37 -166 -75 -207 -86 -41 -11 -83 -23 -92 -26 -15 -6 -18
-2 -18 24 0 18 -20 78 -44 134 -24 56 -46 114 -50 128 -11 49 -51 93 -111 124
-59 29 -63 30 -190 27 l-130 -2 -87 42 c-49 23 -88 45 -88 49 0 8 59 87 101
136 72 85 173 111 303 77z m-3708 -60 c-3 -9 4 -25 19 -40 24 -24 30 -34 20
-34 -2 0 -16 11 -30 26 -14 14 -30 22 -35 19 -6 -3 -10 3 -10 15 0 12 4 19 9
15 5 -3 12 -1 16 5 10 16 18 12 11 -6z m4594 -108 c-15 -43 -34 -100 -41 -127
-7 -27 -16 -49 -21 -49 -11 0 -10 3 8 68 16 58 74 195 80 189 2 -2 -10 -38
-26 -81z m-4579 4 c10 0 33 -60 25 -68 -10 -9 -25 18 -19 35 3 7 1 13 -5 13
-6 0 -13 -6 -15 -12 -3 -7 -6 -3 -6 8 -1 12 -8 27 -16 34 -8 7 -15 17 -15 22
0 5 10 0 22 -12 12 -11 25 -20 29 -20z m59 30 c0 -5 -4 -10 -10 -10 -5 0 -10
5 -10 10 0 6 5 10 10 10 6 0 10 -4 10 -10z m2256 -50 l99 -31 113 16 c63 8
131 15 152 15 38 0 167 -57 189 -84 8 -10 -20 -43 -127 -147 -120 -119 -144
-138 -198 -157 -75 -27 -161 -82 -235 -150 -31 -29 -60 -52 -63 -52 -3 0 -6 9
-6 19 0 25 -67 165 -130 270 -87 147 -145 212 -224 253 -16 8 -25 18 -20 21 6
3 55 10 109 17 55 6 123 17 150 24 72 20 82 19 191 -14z m1006 -98 c138 -72
152 -76 257 -61 84 12 92 11 152 -10 80 -29 104 -51 125 -115 9 -28 34 -90 55
-137 22 -48 39 -100 39 -117 0 -38 5 -36 -279 -91 -534 -104 -764 -136 -926
-127 -55 3 -113 6 -130 7 -23 1 -25 2 -8 6 23 4 37 41 27 67 -15 38 -178 106
-255 106 l-42 0 39 35 c48 43 120 85 199 115 51 20 81 44 201 162 178 175 230
204 365 207 87 1 89 1 181 -47z m-1454 12 c90 -45 170 -148 274 -359 91 -183
89 -200 -33 -193 -88 5 -134 27 -222 108 -70 64 -93 110 -77 151 10 24 18 29
45 29 25 0 40 -8 65 -36 17 -20 36 -47 42 -60 13 -28 37 -39 44 -19 8 21 -40
100 -79 129 -47 35 -72 39 -110 21 -89 -42 -71 -144 44 -249 105 -96 221 -139
317 -118 l42 10 0 -33 c0 -32 -1 -34 -32 -29 -18 2 -143 18 -278 35 -241 30
-338 46 -293 48 l22 1 -26 68 c-49 126 -33 354 33 455 18 28 30 37 42 32 9 -3
13 -3 9 1 -12 12 36 32 79 33 25 1 60 -9 92 -25z m-1407 -21 c13 -16 12 -17
-3 -4 -10 7 -18 15 -18 17 0 8 8 3 21 -13z m657 -128 c-3 -3 -9 2 -12 12 -6
14 -5 15 5 6 7 -7 10 -15 7 -18z m3472 -49 c0 -2 -7 -9 -15 -16 -12 -10 -15
-10 -15 4 0 9 7 16 15 16 8 0 15 -2 15 -4z m-3472 -248 c2 -12 -3 -18 -15 -18
-14 0 -15 2 -5 9 11 7 11 9 -2 14 -9 4 -24 4 -33 1 -15 -5 -16 -4 -3 5 21 16
54 9 58 -11z m-78 -13 c0 -8 -4 -15 -10 -15 -5 0 -7 7 -4 15 4 8 8 15 10 15 2
0 4 -7 4 -15z m107 -20 c0 -8 -4 -15 -9 -15 -4 0 -8 7 -8 15 0 8 4 15 8 15 5
0 9 -7 9 -15z m-44 -2 c-7 -2 -19 -2 -25 0 -7 3 -2 5 12 5 14 0 19 -2 13 -5z
m1348 -59 c82 -25 155 -64 138 -75 -8 -5 -29 -9 -47 -9 -36 0 -75 -16 -68 -28
4 -7 -169 -4 -191 3 -7 2 -15 20 -19 40 -10 57 15 76 112 83 11 1 45 -5 75
-14z m-1881 -407 c47 -24 85 -50 85 -57 0 -8 -11 -20 -25 -27 -30 -15 -12 -17
25 -3 16 6 23 14 19 21 -8 13 48 -18 75 -41 23 -20 51 -38 79 -50 27 -11 27
-14 5 -31 -16 -13 -17 -12 -4 4 11 13 11 17 1 17 -8 0 -22 7 -32 17 -26 23
-32 11 -8 -17 l21 -24 -26 -14 c-15 -7 -29 -11 -32 -9 -2 3 5 8 16 12 27 8 27
20 0 38 -11 8 -22 23 -23 33 -2 10 -9 20 -16 22 -7 3 -10 0 -6 -7 4 -6 3 -11
-3 -11 -5 0 -13 5 -16 11 -4 6 -14 8 -22 5 -8 -3 -11 -1 -8 5 4 5 16 7 28 4
21 -6 21 -5 3 9 -16 13 -21 13 -42 -1 -32 -21 -30 -30 11 -54 38 -23 43 -29
20 -29 -8 0 -23 9 -32 20 -10 11 -28 20 -41 20 -13 0 -21 4 -18 8 3 5 -9 19
-26 32 -25 18 -32 20 -39 9 -7 -9 -8 -5 -3 13 4 19 1 29 -13 36 -14 9 -16 13
-5 23 18 19 15 25 -18 39 -25 10 -34 10 -55 -4 -17 -11 -22 -21 -18 -34 6 -15
5 -15 -10 -3 -14 11 -15 17 -5 30 34 43 53 41 158 -12z m-147 -50 c-3 -5 -13
-1 -23 8 -11 10 -20 12 -24 7 -3 -6 0 -13 6 -16 7 -3 4 -4 -8 -1 -24 6 -50
-18 -38 -36 4 -8 3 -9 -4 -5 -8 5 -10 2 -6 -8 3 -9 2 -16 -4 -16 -26 0 -16 28
21 66 40 39 43 41 63 25 12 -9 20 -20 17 -24z m-113 -69 c17 -11 22 -10 31 2
9 13 10 13 6 0 -3 -11 -15 -14 -41 -12 -25 2 -36 -1 -31 -7 3 -6 1 -11 -4 -11
-14 0 -14 13 1 28 15 15 14 15 38 0z m266 -3 c9 -8 11 -15 6 -15 -5 0 -15 7
-22 15 -7 8 -9 15 -6 15 4 0 14 -7 22 -15z m-206 -40 c0 -8 -4 -15 -10 -15 -5
0 -10 7 -10 15 0 8 5 15 10 15 6 0 10 -7 10 -15z m67 -7 c-3 -8 -6 -5 -6 6 -1
11 2 17 5 13 3 -3 4 -12 1 -19z m-177 -8 c-13 -24 -22 -27 -13 -3 5 12 3 14
-7 8 -9 -5 -11 -4 -6 3 4 7 14 12 22 12 12 0 12 -4 4 -20z m240 0 c9 -16 8
-18 -5 -14 -8 4 -15 12 -15 20 0 20 7 17 20 -6z m-80 0 c0 -5 -4 -10 -10 -10
-5 0 -10 5 -10 10 0 6 5 10 10 10 6 0 10 -4 10 -10z m-196 -25 c-7 -18 0 -19
29 -4 20 9 21 9 4 -4 -10 -8 -16 -21 -15 -28 2 -8 -3 -12 -12 -10 -34 8 -43 5
-45 -17 -1 -13 5 -27 14 -33 14 -9 14 -10 -1 -5 -12 3 -18 0 -18 -9 0 -9 6
-12 15 -9 8 4 15 1 15 -5 0 -18 -28 -13 -38 7 -5 9 -7 24 -4 32 2 8 -8 -2 -22
-24 -15 -21 -34 -45 -41 -53 -13 -12 -13 -18 2 -41 l16 -27 -23 22 c-22 20
-22 23 -7 46 8 13 22 31 30 38 7 8 19 25 26 37 7 12 17 20 22 16 6 -3 9 1 7 9
-2 8 8 28 21 46 26 34 33 39 25 16z m666 0 c16 -19 1 -19 -24 0 -16 12 -17 15
-4 15 8 0 21 -7 28 -15z m-405 -5 c3 -5 2 -10 -4 -10 -5 0 -13 5 -16 10 -3 6
-2 10 4 10 5 0 13 -4 16 -10z m-117 -24 c-7 -8 -15 -12 -17 -11 -5 6 10 25 20
25 5 0 4 -6 -3 -14z m602 -25 c3 -2 -3 -1 -12 2 -9 3 -22 0 -28 -8 -8 -10 -8
-14 2 -17 8 -3 6 -7 -6 -11 -10 -4 -15 -3 -11 3 3 6 1 10 -5 10 -6 0 -3 11 7
24 18 23 24 23 53 -3z m-702 -36 c1 -14 -2 -25 -6 -25 -4 0 -8 11 -8 25 -2 33
11 33 14 0z m738 11 c15 -16 18 -26 6 -26 -4 0 -13 9 -20 20 -14 23 -7 26 14
6z m121 -89 c3 -5 0 -14 -6 -20 -6 -6 -11 -20 -10 -31 0 -20 1 -20 11 2 6 12
18 22 26 22 11 0 12 -3 3 -13 -6 -8 -27 -45 -46 -84 -44 -88 -57 -100 -80 -76
-16 16 -17 14 -13 -30 3 -25 1 -44 -3 -41 -4 2 -10 0 -14 -6 -3 -5 -1 -10 5
-10 6 0 8 -5 5 -10 -5 -8 -11 -8 -19 -1 -7 6 -15 8 -19 5 -3 -3 -3 4 0 16 3
13 11 19 19 16 10 -4 14 4 14 28 0 19 3 42 6 51 6 14 8 14 25 -1 11 -10 22
-14 26 -10 4 4 1 12 -7 17 -12 8 -11 9 5 7 18 -3 20 2 19 44 0 26 3 45 8 42 4
-3 8 7 8 23 0 19 -3 24 -9 15 -5 -8 -7 5 -6 32 2 41 0 47 -21 52 -13 3 -24 13
-24 21 0 10 14 4 46 -19 25 -18 48 -36 51 -41z m-959 18 c-3 -3 -9 2 -12 12
-6 14 -5 15 5 6 7 -7 10 -15 7 -18z m857 -24 c-11 -10 -35 11 -35 30 0 21 0
21 19 -2 11 -13 18 -26 16 -28z m15 29 c0 -5 -4 -10 -10 -10 -5 0 -10 5 -10
10 0 6 5 10 10 10 6 0 10 -4 10 -10z m-887 -14 c4 -10 0 -14 -12 -13 -11 1
-17 7 -14 14 7 17 20 17 26 -1z m72 -16 c-3 -5 -11 -10 -16 -10 -6 0 -7 5 -4
10 3 6 11 10 16 10 6 0 7 -4 4 -10z m-83 -35 c3 -14 1 -25 -3 -25 -5 0 -9 4
-9 9 0 5 -3 16 -6 25 -3 9 -2 16 4 16 5 0 12 -11 14 -25z m108 5 c0 -5 -5 -10
-11 -10 -5 0 -7 5 -4 10 3 6 8 10 11 10 2 0 4 -4 4 -10z m97 -12 c-3 -8 -6 -5
-6 6 -1 11 2 17 5 13 3 -3 4 -12 1 -19z m-110 -22 c-6 -8 -18 -11 -24 -9 -18
7 -9 18 16 20 17 1 18 -1 8 -11z m93 -6 c0 -5 -4 -10 -10 -10 -5 0 -10 5 -10
10 0 6 5 10 10 10 6 0 10 -4 10 -10z m-69 -53 c-8 -8 -16 -6 -28 6 -16 16 -16
17 5 17 12 0 23 6 23 13 1 6 3 4 6 -7 3 -10 0 -23 -6 -29z m-34 -35 c2 -14 -1
-21 -7 -17 -5 3 -10 12 -10 20 0 7 -6 16 -12 19 -7 3 -4 5 6 3 11 -1 20 -11
23 -25z m30 -9 c-4 -3 -3 -11 3 -17 5 -7 5 -17 -2 -26 -8 -12 -9 -12 -4 2 3
10 1 20 -5 23 -9 6 -3 25 8 25 4 0 3 -3 0 -7z m676 -55 c-4 -7 -6 -20 -5 -30
2 -9 -2 -19 -8 -23 -14 -9 -13 38 2 53 16 16 21 15 11 0z m-633 -19 c0 -4 -7
-6 -15 -3 -8 4 -15 10 -15 15 0 4 7 6 15 3 8 -4 15 -10 15 -15z m60 -21 c9 1
23 -4 30 -13 14 -17 7 -19 -20 -5 -13 7 -21 7 -25 0 -3 -5 1 -10 9 -10 9 0 21
-9 28 -20 7 -11 16 -20 21 -20 4 0 6 4 2 9 -3 5 0 13 6 16 7 5 9 -1 7 -16 -2
-19 1 -23 17 -21 14 2 16 0 7 -6 -9 -6 -6 -12 13 -22 23 -12 28 -12 35 0 7 11
3 20 -13 33 l-22 18 27 -12 c24 -11 37 -49 16 -49 -4 0 -8 -5 -8 -12 0 -6 3
-9 6 -5 4 3 19 0 35 -8 32 -17 64 -21 39 -5 -12 7 -10 9 7 7 20 -1 21 -3 8
-17 -18 -20 -10 -30 21 -30 13 0 25 -4 29 -10 3 -5 12 -7 21 -3 9 3 14 0 12
-8 -2 -9 8 -12 37 -11 24 2 35 -1 28 -5 -10 -7 38 -28 90 -39 4 -1 10 -3 15
-4 4 -1 10 -2 15 -1 10 2 9 -17 -4 -40 -10 -20 -11 -20 -42 -1 -18 11 -99 54
-181 96 -82 43 -163 87 -180 99 -50 36 -111 91 -111 102 -1 5 -6 9 -11 8 -6
-1 -11 5 -11 12 0 12 3 12 15 2 8 -6 23 -11 32 -9z m48 6 c12 -8 22 -19 22
-24 0 -6 -9 -2 -20 8 -11 9 -33 20 -48 23 l-27 7 25 1 c14 0 36 -6 48 -15z
m552 -64 c0 -11 0 -22 0 -25 0 -3 -3 -4 -7 -2 -5 1 -7 8 -7 14 1 7 -2 10 -7 7
-5 -3 -9 -12 -9 -21 0 -9 -3 -14 -6 -10 -4 3 -4 18 0 32 8 30 36 34 36 5z
m-20 -70 c-12 -23 -16 -24 -26 -8 -4 6 -3 8 3 5 6 -4 13 0 17 8 3 8 8 15 11
15 3 0 1 -9 -5 -20z m-60 -38 c0 -15 -2 -15 -10 -2 -13 20 -13 33 0 25 6 -3
10 -14 10 -23z m21 -28 c-10 -20 -17 -26 -19 -18 -2 8 1 21 7 28 6 8 8 22 4
32 -6 16 -5 17 9 4 14 -13 14 -18 -1 -46z m-264 39 c-15 -2 -25 -9 -22 -14 4
-5 -1 -9 -11 -9 -13 0 -14 3 -4 15 7 8 24 14 39 14 l26 -2 -28 -4z m210 -35
c-3 -7 -5 -2 -5 12 0 14 2 19 5 13 2 -7 2 -19 0 -25z m-182 12 c-3 -5 -13 -10
-21 -10 -8 0 -12 5 -9 10 3 6 13 10 21 10 8 0 12 -4 9 -10z m202 -42 c-3 -7
-5 -2 -5 12 0 14 2 19 5 13 2 -7 2 -19 0 -25z m-20 -21 c2 -20 2 -20 -8 -4 -9
15 -18 17 -44 13 -19 -4 -36 -2 -40 4 -3 5 0 8 7 5 7 -3 27 -1 43 4 35 9 38 8
42 -22z m33 -1 c0 -3 -4 -8 -10 -11 -5 -3 -10 -1 -10 4 0 6 5 11 10 11 6 0 10
-2 10 -4z"/>
<path d="M4526 6125 c28 -30 77 -100 110 -155 32 -55 62 -100 66 -100 12 0
-18 87 -47 135 -34 59 -80 111 -129 147 -58 42 -58 34 0 -27z"/>
<path d="M4420 4670 c0 -5 5 -10 11 -10 5 0 7 5 4 10 -3 6 -8 10 -11 10 -2 0
-4 -4 -4 -10z"/>
<path d="M4550 4190 c0 -16 84 -93 88 -81 2 6 -10 23 -27 37 -17 14 -31 32
-31 40 0 8 -7 14 -15 14 -8 0 -15 -5 -15 -10z"/>
<path d="M4919 3993 c-13 -16 -12 -17 4 -4 16 13 21 21 13 21 -2 0 -10 -8 -17
-17z"/>
<path d="M5220 3870 c0 -5 5 -10 11 -10 5 0 7 5 4 10 -3 6 -8 10 -11 10 -2 0
-4 -4 -4 -10z"/>
<path d="M2100 4365 c0 -4 14 -26 30 -50 36 -52 36 -55 8 -55 -35 -1 -105 -36
-117 -59 -11 -19 -9 -19 59 5 38 13 73 24 78 24 4 0 41 -20 82 -45 41 -24 82
-45 90 -45 16 1 -50 68 -85 88 -19 10 -17 14 30 61 27 28 44 51 37 51 -20 0
-65 -26 -86 -49 l-19 -21 -34 40 c-33 38 -73 68 -73 55z"/>
<path d="M6370 3560 c59 -206 13 -567 -117 -913 -16 -44 -22 -72 -16 -78 16
-16 28 8 71 132 127 369 162 784 73 873 l-21 20 10 -34z"/>
<path d="M3170 2867 c0 -27 4 -37 16 -37 13 0 15 6 9 28 -11 45 -25 50 -25 9z"/>
<path d="M3241 2874 c0 -11 3 -14 6 -6 3 7 2 16 -1 19 -3 4 -6 -2 -5 -13z"/>
<path d="M5877 1480 c-40 -22 -106 -104 -107 -133 0 -46 82 -139 149 -166 29
-13 37 -12 66 3 35 19 75 82 95 152 16 54 -5 102 -58 132 -57 32 -101 35 -145
12z m108 -34 c18 -8 41 -26 51 -41 16 -25 16 -29 0 -81 -23 -74 -64 -119 -98
-111 -33 9 -128 98 -128 121 0 9 17 42 38 71 32 47 42 54 70 55 18 0 48 -6 67
-14z"/>
<path d="M3700 1439 c0 -5 5 -7 10 -4 6 3 10 8 10 11 0 2 -4 4 -10 4 -5 0 -10
-5 -10 -11z"/>
<path d="M4867 1397 c-43 -43 -217 -333 -217 -362 0 -88 250 -383 383 -451 29
-15 33 -15 64 2 19 10 49 42 68 73 49 78 185 404 185 443 0 28 -11 44 -72 101
-92 87 -316 227 -365 227 -7 0 -27 -15 -46 -33z m167 -64 c96 -55 130 -79 214
-151 49 -43 62 -60 62 -83 0 -32 -135 -356 -174 -417 -38 -61 -60 -76 -88 -61
-109 57 -338 313 -354 395 -5 28 5 51 72 161 124 205 132 216 161 208 14 -3
62 -27 107 -52z"/>
<path d="M3670 1391 c0 -5 5 -13 10 -16 6 -3 10 -2 10 4 0 5 -4 13 -10 16 -5
3 -10 2 -10 -4z"/>
<path d="M2874 1168 c-18 -24 -45 -66 -60 -95 l-29 -52 25 -48 c14 -26 66 -90
116 -141 83 -86 93 -93 112 -83 28 15 45 49 99 194 31 86 40 123 34 136 -21
38 -166 117 -233 127 -30 4 -36 0 -64 -38z m52 -21 c-9 -7 -17 -17 -16 -22 5
-22 -1 -34 -26 -50 -25 -16 -25 -16 -14 4 6 12 15 21 20 21 6 0 10 8 10 18 0
20 18 42 34 42 5 0 2 -6 -8 -13z m91 -20 c4 -6 1 -7 -6 -3 -18 12 -71 -13 -64
-30 3 -8 0 -14 -6 -14 -15 0 -14 23 2 39 10 10 9 11 -5 6 -11 -4 -18 -2 -18 4
0 6 7 11 15 11 8 0 15 4 15 9 0 12 57 -7 67 -22z m101 -62 c17 -20 17 -20 -4
-2 -23 19 -39 23 -28 5 4 -7 3 -8 -4 -4 -21 13 -34 -5 -15 -20 10 -7 13 -14 6
-14 -6 0 -15 5 -18 10 -3 6 -15 10 -25 10 -13 0 -18 5 -14 15 4 9 11 15 18 14
27 -3 47 2 41 11 -3 5 -11 7 -19 4 -7 -3 -13 2 -13 10 0 13 4 13 29 -2 16 -9
37 -26 46 -37z m-118 5 c0 -5 -5 -10 -11 -10 -5 0 -7 5 -4 10 3 6 8 10 11 10
2 0 4 -4 4 -10z m-80 -10 c0 -5 -7 -10 -16 -10 -8 0 -12 5 -9 10 3 6 10 10 16
10 5 0 9 -4 9 -10z m-25 -19 c5 -1 2 -8 -7 -17 -15 -15 -18 -15 -32 -2 -17 18
-12 27 12 23 9 -2 21 -4 27 -4z m223 1 c9 -6 3 -34 -28 -118 -55 -149 -58
-150 -120 -89 -60 59 -133 162 -126 179 2 6 5 3 5 -7 1 -10 5 -16 10 -13 5 3
12 -5 15 -18 8 -32 48 -28 77 8 11 14 25 26 32 26 6 0 2 -7 -9 -15 -29 -22 -6
-18 63 11 34 15 60 31 57 35 -7 11 7 11 24 1z m-118 -6 c0 -2 -9 -6 -20 -9
-11 -3 -20 -1 -20 4 0 5 9 9 20 9 11 0 20 -2 20 -4z m25 -16 c-3 -5 -11 -10
-16 -10 -6 0 -7 5 -4 10 3 6 11 10 16 10 6 0 7 -4 4 -10z m-114 -33 c-16 -16
-26 0 -10 19 9 11 15 12 17 4 2 -6 -1 -17 -7 -23z"/>
<path d="M3731 1124 c-35 -15 -81 -89 -81 -131 0 -36 63 -111 140 -168 42 -31
52 -35 71 -25 36 20 112 214 101 262 -10 47 -167 89 -231 62z m159 -52 c42
-20 42 -38 2 -144 -38 -100 -48 -103 -117 -43 -31 28 -65 64 -75 80 l-19 31
30 53 31 53 56 -7 c31 -3 73 -14 92 -23z"/>
<path d="M4985 2510 c-2 -4 13 -17 35 -29 21 -12 70 -46 109 -76 66 -51 101
-67 101 -47 0 11 -88 94 -129 122 -34 24 -108 43 -116 30z"/>
<path d="M5488 2233 c42 -88 59 -113 74 -113 24 0 23 17 -3 60 -30 51 -93 97
-71 53z"/>
<path d="M3792 2314 c-39 -31 -64 -76 -55 -99 5 -13 15 -16 44 -12 44 6 129
46 136 65 10 25 -8 25 -63 3 -30 -13 -58 -21 -61 -17 -3 3 6 21 21 40 41 54
32 62 -22 20z"/>
<path d="M4226 2211 c5 -4 52 -47 104 -94 53 -47 115 -110 139 -141 40 -52 71
-71 71 -45 0 46 -166 221 -248 263 -50 26 -86 35 -66 17z"/>
<path d="M4750 2212 c0 -4 10 -18 23 -29 12 -11 44 -43 70 -72 46 -48 67 -57
67 -28 0 24 -59 83 -109 110 -28 16 -51 24 -51 19z"/>
<path d="M4940 2153 c0 -19 11 -43 21 -43 13 0 11 14 -6 36 -8 10 -15 14 -15
7z"/>
<path d="M4030 1800 c8 -5 20 -10 25 -10 6 0 3 5 -5 10 -8 5 -19 10 -25 10 -5
0 -3 -5 5 -10z"/>
<path d="M1890 1474 c0 -22 49 -49 62 -36 9 9 7 16 -8 26 -28 22 -54 26 -54
10z m55 -24 c3 -5 2 -10 -4 -10 -5 0 -13 5 -16 10 -3 6 -2 10 4 10 5 0 13 -4
16 -10z"/>
<path d="M2417 1140 c6 -7 9 -19 6 -26 -3 -8 -1 -14 5 -14 21 0 21 30 -1 41
-17 9 -20 9 -10 -1z"/>
<path d="M2426 1031 c-10 -11 -16 -26 -14 -33 3 -8 12 0 22 20 19 37 17 40 -8
13z"/>
<path d="M2501 7019 c-73 -14 -142 -39 -226 -82 -73 -38 -86 -42 -160 -42
-117 -2 -179 -29 -270 -119 -80 -79 -148 -187 -196 -311 -43 -109 -59 -193
-59 -305 0 -80 4 -103 23 -140 39 -79 144 -126 263 -118 35 2 64 3 64 1 0 -2
-11 -21 -25 -42 -57 -86 -93 -226 -75 -293 22 -81 124 -119 251 -92 39 8 80
19 90 24 15 9 20 2 35 -43 42 -129 103 -212 199 -272 80 -50 163 -75 250 -75
l60 1 -40 34 c-145 127 -153 136 -188 207 -56 116 -56 113 5 133 114 36 227
127 268 215 20 43 32 54 72 72 57 24 132 101 160 166 33 72 31 164 -4 223 -32
54 -85 104 -137 127 -20 9 -37 17 -39 18 -2 1 13 24 34 51 89 115 137 286 115
407 -13 68 -31 109 -71 158 -69 83 -248 127 -399 97z m284 -57 c103 -47 146
-114 153 -238 7 -138 -27 -242 -119 -356 -27 -34 -49 -65 -49 -70 0 -4 26 -20
58 -34 215 -95 216 -322 2 -474 -26 -19 -30 -19 -30 -5 0 31 -23 9 -36 -33
-17 -59 -79 -137 -143 -179 -53 -36 -138 -73 -165 -73 -30 0 -39 171 -12 234
9 22 40 61 68 87 29 27 49 51 45 55 -4 4 -28 -6 -53 -22 -92 -57 -133 -183
-101 -304 9 -35 11 -59 5 -67 -6 -7 -4 -14 4 -20 8 -4 22 -30 32 -58 38 -104
104 -191 186 -247 l25 -17 -45 0 c-58 0 -116 24 -193 80 -111 80 -175 207
-198 389 -12 99 -7 218 11 283 6 21 24 53 41 71 34 39 36 46 10 46 -11 0 -30
-13 -44 -30 -45 -53 -52 -92 -52 -277 l0 -172 -25 -11 c-33 -15 -133 -23 -187
-15 -24 3 -56 18 -74 33 -31 26 -32 27 -26 98 7 88 43 176 104 251 51 62 54
78 16 69 -114 -25 -139 -27 -196 -17 -121 21 -176 88 -177 213 0 168 71 374
185 533 91 126 166 174 289 183 l70 5 -68 -63 c-37 -35 -80 -82 -96 -105 -48
-69 -61 -155 -24 -155 9 0 14 11 14 30 0 50 26 97 87 162 73 76 158 137 256
184 116 55 157 64 287 61 95 -2 124 -7 165 -25z"/>
</g>
</svg>
